<?xml version="1.0" standalone="no"?>
<!DOCTYPE svg PUBLIC "-//W3C//DTD SVG 20010904//EN"
 "http://www.w3.org/TR/2001/REC-SVG-20010904/DTD/svg10.dtd">
<svg version="1.0" xmlns="http://www.w3.org/2000/svg"
 width="810.000000pt" height="810.000000pt" viewBox="0 0 810.000000 810.000000"
 preserveAspectRatio="xMidYMid meet">
<metadata>
Created by potrace 1.11, written by Peter Selinger 2001-2013
</metadata>
<g transform="translate(0.000000,810.000000) scale(0.100000,-0.100000)"
fill="#000000" stroke="none">
<path d="M3800 8009 c-685 -51 -1325 -269 -1895 -644 -839 -553 -1436 -1400
-1676 -2379 -65 -265 -98 -521 -106 -816 -16 -580 84 -1120 302 -1640 31 -74
64 -151 72 -171 15 -36 14 -41 -201 -715 -119 -374 -221 -703 -227 -733 -36
-174 73 -311 249 -311 24 0 377 41 784 90 l740 91 92 -59 c485 -313 1017 -512
1591 -596 272 -40 741 -46 1020 -12 1022 125 1916 609 2581 1397 436 517 739
1160 858 1826 76 422 85 799 30 1238 -64 509 -262 1080 -529 1520 -593 978
-1567 1653 -2685 1859 -322 59 -681 79 -1000 55z m816 -1320 c58 -28 114 -86
146 -151 14 -29 137 -345 273 -703 135 -357 248 -651 250 -653 2 -2 305 -111
675 -243 369 -132 688 -250 708 -263 86 -55 130 -121 139 -212 7 -61 -12 -123
-57 -189 -15 -22 -268 -285 -563 -585 -294 -300 -546 -560 -561 -577 -26 -31
-27 -38 -100 -745 -83 -797 -83 -797 -162 -874 -89 -86 -203 -97 -333 -31 -36
18 -357 205 -712 415 -356 210 -657 382 -669 382 -12 0 -315 -36 -673 -80
-964 -118 -902 -112 -975 -99 -80 14 -146 58 -187 123 -28 46 -30 56 -29 140
0 87 5 105 97 391 53 165 151 471 218 680 l121 380 -280 740 c-154 407 -285
758 -291 780 -14 51 -14 139 0 189 14 50 83 124 139 148 25 11 78 22 120 25
41 2 368 -16 725 -41 l650 -46 220 223 c121 122 357 361 525 531 262 266 313
313 365 338 75 35 158 38 221 7z"/>
</g>
</svg>
